<svg xmlns="http://www.w3.org/2000/svg" xmlns:xlink="http://www.w3.org/1999/xlink" viewBox="0 0 1920.5 1006.82"><defs><style>.cls-1{fill:url(#Naamloos_verloop_13);}</style><linearGradient id="Naamloos_verloop_13" x1="-42.07" y1="-790.49" x2="1642.28" y2="-1483.16" gradientTransform="translate(1920.5 -699.18) rotate(180)" gradientUnits="userSpaceOnUse"><stop offset="0" stop-color="#a0f9ca"/><stop offset="1" stop-color="#5cbcf7"/></linearGradient></defs><title>bg-2</title><g id="Laag_2" data-name="Laag 2"><g id="Laag_1-2" data-name="Laag 1"><path class="cls-1" d="M1730.17,50.32c-60.73,0-113.14-20.06-170.94-38.14-9.87-3.09-20.07-6.21-30.37-5.26-9.88.91-19,5.49-28,9.63-99.93,45.93-220.41,44.55-319.27-3.64-8.57-4.18-17.33-8.78-26.85-9.17-11.27-.46-21.81,5-32,9.91-100.68,48.37-223.3,48.45-324,.21-9.31-4.46-18.82-9.41-29.14-9.81-12.26-.48-23.71,5.5-34.79,10.78C638.05,60.91,521,62,423.44,17.67c-12.78-5.8-25.91-12.49-39.93-12C375.05,6,366.94,8.93,359,11.83,301.92,32.65,252.36,50.32,190.83,50.32A383.09,383.09,0,0,1,.45,0L0,745.32s102,112,599,117c274,2.76,1321.5,144.5,1321.5,144.5V0A383.11,383.11,0,0,1,1730.17,50.32Z"/></g></g></svg>