<svg xmlns="http://www.w3.org/2000/svg" xmlns:xlink="http://www.w3.org/1999/xlink" viewBox="0 0 1920.5 1006.82"><defs><style>.cls-1{fill:url(#Naamloos_verloop_13);}</style><linearGradient id="Naamloos_verloop_13" x1="-42.07" y1="915.51" x2="1642.28" y2="222.84" gradientUnits="userSpaceOnUse"><stop offset="0" stop-color="#a0f9ca"/><stop offset="1" stop-color="#5cbcf7"/></linearGradient></defs><title>bg</title><g id="Laag_2" data-name="Laag 2"><g id="Laag_1-2" data-name="Laag 1"><path class="cls-1" d="M190.33,956.5c60.73,0,113.14,20.07,170.94,38.14,9.87,3.09,20.07,6.21,30.37,5.26,9.88-.91,19-5.48,28-9.63,99.93-45.93,220.41-44.55,319.27,3.64,8.57,4.18,17.33,8.78,26.85,9.17,11.27.46,21.81-5,32-9.91,100.68-48.37,223.3-48.45,324-.21,9.31,4.46,18.82,9.41,29.14,9.81,12.26.48,23.71-5.5,34.79-10.78,96.72-46.08,213.79-47.15,311.33-2.84,12.78,5.8,25.91,12.49,39.93,12,8.46-.31,16.57-3.24,24.52-6.14,57.07-20.82,106.63-38.49,168.16-38.49a383.09,383.09,0,0,1,190.38,50.32l.45-745.32s-102-112-599-117c-274-2.76-578-144.5-578-144.5H0V1006.79A383.11,383.11,0,0,1,190.33,956.5Z"/></g></g></svg>